<?xml version="1.0" encoding="UTF-8"?>
<svg height="77px" version="1.1" viewBox="0 0 104 77" width="104px"
    xmlns="http://www.w3.org/2000/svg">
    <title>F7A6344E-EF8D-4845-9267-5217FC3CD4E5</title>
    <g id="Page-1" stroke="none" stroke-width="1" fill="none" fill-rule="evenodd">
        <g id="gold" transform="translate(-135.000000, -109.000000)" fill="#FFFFFF"
            fill-rule="nonzero">
            <g transform="translate(135.000000, 109.000000)">
                <path
                    d="M103.905955,74.352137 L98.3537355,56.709149 C98.0870324,55.8618816 97.3029698,55.2857724 96.4165322,55.2857724 L86.8018125,55.2857724 L81.6974839,39.066161 C81.4307807,38.2188936 80.6467181,37.6427844 79.7602805,37.6427844 L70.1455608,37.6427844 L65.0412322,21.4233765 C64.7745291,20.5761092 63.9904665,20 63.1040289,20 L40.8959642,20 C40.0095266,20 39.225464,20.5761092 38.9587609,21.4233765 L33.8544322,37.6427844 L24.2397125,37.6427844 C23.3532749,37.6427844 22.5692124,38.2188936 22.3025092,39.066161 L17.1983837,55.2857724 L7.58346088,55.2857724 C6.69702329,55.2857724 5.91296072,55.8618816 5.64625756,56.709149 L0.0940382628,74.352137 C-0.100555506,74.9705892 0.0105538795,75.6450237 0.393038292,76.1680006 C0.77572583,76.6909775 1.38408527,77 2.03124158,77 L35.3437449,77 L35.3453699,77 L42.8601831,77 C43.9820426,77 44.8914333,76.0886075 44.8914333,74.9642784 C44.8914333,73.8399494 43.9820426,72.9285569 42.8601831,72.9285569 L38.1143702,72.9285569 L42.3852768,59.357012 L61.6149194,59.357012 L65.885826,72.9285569 L61.1416381,72.9285569 C60.0197786,72.9285569 59.1103879,73.8399494 59.1103879,74.9642784 C59.1103879,76.0886075 60.0197786,77 61.1416381,77 L68.6548263,77 L68.6564513,77 L101.968955,77 C102.616111,77 103.22447,76.6909775 103.607158,76.1680006 C103.989439,75.6450237 104.100549,74.9705892 103.905955,74.352137 Z M82.5420777,55.285976 L74.2084675,55.285976 L63.1064664,55.285976 C63.1056539,55.285976 63.1048414,55.285976 63.1040289,55.285976 L54.7706218,55.285976 L59.0415285,41.7144311 L78.271171,41.7144311 L82.5420777,55.285976 Z M51.9999965,50.5533305 L49.2184025,41.7142276 L54.7817937,41.7142276 L51.9999965,50.5533305 Z M42.3852768,24.0714431 L61.6149194,24.0714431 L65.885826,37.642988 L57.552419,37.642988 L46.4479804,37.642988 L38.1143702,37.642988 L42.3852768,24.0714431 Z M25.7290252,41.7142276 L44.9586677,41.7142276 L49.2295744,55.2857724 L40.8961673,55.2857724 C40.8953548,55.2857724 40.8945423,55.2857724 40.8937298,55.2857724 L29.7917287,55.2857724 L21.4581185,55.2857724 L25.7290252,41.7142276 Z M4.80186686,72.9287605 L9.07277353,59.3572156 L28.3024161,59.3572156 L32.5733227,72.9287605 L4.80186686,72.9287605 Z M35.3437449,68.1963186 L32.5621509,59.3572156 L38.1253389,59.3572156 L35.3437449,68.1963186 Z M65.8746542,59.3574191 L71.4378422,59.3574191 L68.6562482,68.1963186 L65.8746542,59.3574191 Z M71.4268735,72.9287605 L75.6977801,59.3572156 L94.9274227,59.3572156 L99.1983293,72.9287605 L71.4268735,72.9287605 Z"
                    id="Shape"></path>
                <path
                    d="M52,11 C53.1046,11 54,10.0373737 54,8.84984069 L54,2.15015931 C54,0.962626322 53.1046,0 52,0 C50.8954,0 50,0.962626322 50,2.15015931 L50,8.84984069 C50,10.0373737 50.8954,11 52,11 L52,11 Z"
                    id="Path"></path>
                <path
                    d="M62.9839742,12.7143937 C63.2938175,12.9080611 63.6319893,13 63.9658331,13 C64.6457178,13 65.3069135,12.6181984 65.6712499,11.9354673 L68.7360426,6.19269418 C69.2793995,5.17476935 68.9569657,3.87315357 68.0160258,3.28555364 C67.0750859,2.69774089 65.8719103,3.04655519 65.3287501,4.06448002 L62.2639574,9.80725312 C61.7206005,10.8251779 62.0430343,12.1267937 62.9839742,12.7143937 L62.9839742,12.7143937 Z"
                    id="Path"></path>
                <path
                    d="M71.1305137,19 C71.4914607,19 71.8575155,18.9148193 72.192711,18.735999 L77.9355144,15.6712659 C78.9534446,15.1281163 79.3022607,13.9249641 78.7144449,12.9840425 C78.1268418,12.0431208 76.8250064,11.7204967 75.807289,12.2640397 L70.0644856,15.3287728 C69.0465554,15.8719224 68.6977393,17.0750746 69.2855551,18.0159962 C69.6794897,18.6470806 70.3947862,19 71.1305137,19 L71.1305137,19 Z"
                    id="Path"></path>
                <path
                    d="M38.3287501,11.9354722 C38.6930865,12.6182002 39.3542822,13 40.0341669,13 C40.367814,13 40.7061825,12.9078488 41.0160258,12.714395 C41.9569657,12.1267978 42.2793995,10.825188 41.7360426,9.80726794 L38.6712499,4.06452152 C38.1280897,3.04638859 36.9247174,2.69778873 35.9839742,3.28559875 C35.0430343,3.87319595 34.7206005,5.17480569 35.2639574,6.19272579 L38.3287501,11.9354722 Z"
                    id="Path"></path>
                <path
                    d="M26.0644856,15.6712243 L31.807289,18.7359957 C32.1424845,18.915015 32.5083264,19 32.8694863,19 C33.605001,19 34.3202975,18.6470762 34.7144449,18.0159839 C35.3022607,17.0750505 34.9534446,15.8718834 33.9355144,15.3287269 L28.192711,12.2639556 C27.1749936,11.7206025 25.873371,12.043034 25.2855551,12.9839674 C24.6977393,13.924704 25.0465554,15.1280679 26.0644856,15.6712243 Z"
                    id="Path"></path>
                <path d="M52.0003,73 L51.9989002,73 C50.8944658,73 50,73.8954 50,75 C50,76.1046 50.8958656,77 52.0003,77 C53.1047343,77 54,76.1046 54,75 C54,73.8954 53.1047343,73 52.0003,73 Z" id="Path"></path>
            </g>
        </g>
    </g>
</svg>