<?xml version="1.0" encoding="UTF-8"?>
<svg height="56px" version="1.1" viewBox="0 0 56 56" width="56px"
    xmlns="http://www.w3.org/2000/svg">
    <title>4EF989C0-EAA6-4E6A-866A-CEE0A00185E6</title>
    <g id="Page-1" stroke="none" stroke-width="1" fill="none" fill-rule="evenodd">
        <g id="video-call" transform="translate(-324.000000, -807.000000)">
            <g id="Group-2" transform="translate(324.000000, 807.000000)">
                <rect id="Rectangle" fill="#FFFFFF" x="0" y="0" width="56" height="56"
                    rx="28"></rect>
                <g id="volumesd" transform="translate(13.000000, 18.000000)" fill="#3C0FC7"
                    fill-rule="nonzero">
                    <path
                        d="M13.4615579,2.1423739 C13.1283838,1.95254203 12.7178477,1.95254203 12.3846105,2.1423739 L5.09819441,6.24925478 L1.07694735,6.24925478 C0.482155896,6.24925478 0,6.72498627 0,7.31179027 L0,13.6872523 C0,14.2741186 0.482155896,14.7498501 1.07694735,14.7498501 L5.09819441,14.7498501 L12.3889645,18.8599062 C12.9054474,19.1509734 13.5632138,18.9738427 13.8582117,18.4643038 C13.9510966,18.3038588 14,18.1223698 14,17.9375811 L14,3.06152377 C13.9996214,2.68229584 13.7944164,2.332019 13.4615579,2.1423739 Z M11.8461684,16.1056942 L5.92305265,12.7649272 C5.75911586,12.6724082 5.57340917,12.6240319 5.38461053,12.6246545 L2.15383159,12.6246545 L2.15383159,8.37432577 L5.38461053,8.37432577 C5.57347228,8.37494837 5.75917896,8.32657207 5.92305265,8.23405315 L11.8461684,4.89328615 L11.8461684,16.1056942 Z"
                        id="Shape"></path>
                    <path
                        d="M18.7768609,6.41887352 C18.4317294,5.93585813 17.805014,5.85936367 17.3763009,6.24796342 C16.947179,6.63695849 16.8788419,7.34477929 17.2236814,7.82884886 C17.2236814,7.82884886 17.2237398,7.82891475 17.2237398,7.82898064 C18.2545786,9.41783837 18.2545786,11.5768137 17.2237398,13.1656714 C16.8762135,13.6473032 16.9406373,14.3555852 17.3675981,14.7476111 C17.794559,15.1396369 18.4224425,15.0669639 18.7699688,14.5853321 C18.7722467,14.5821696 18.7745246,14.579007 18.7768025,14.5757786 C20.4077228,12.168015 20.4077228,8.82670291 18.7768609,6.41887352 Z"
                        id="Path"></path>
                    <path
                        d="M22.2358952,3.42560883 C21.8015881,2.93482676 21.0129411,2.8571023 20.4734565,3.25195057 C19.9334575,3.64720052 19.8474634,4.36640279 20.2814765,4.85825601 C20.2814765,4.85832295 20.28155,4.85832295 20.28155,4.8583899 C23.2695152,8.49851875 23.2695152,13.4960473 20.28155,17.1361762 C19.8442294,17.6255524 19.9252991,18.3452233 20.4625786,18.7435527 C20.9998582,19.1418822 21.7899752,19.0680406 22.2272957,18.5786644 C22.2301622,18.575451 22.2330287,18.5722376 22.2358952,18.5689572 C25.9213683,14.0792151 25.9213683,7.91528407 22.2358952,3.42560883 Z"
                        id="Path"></path>
                    <path
                        d="M26.7883686,0.409681825 C26.4409904,-0.0627343495 25.8101954,-0.137550224 25.3786916,0.242522153 C24.9467764,0.622981175 24.8779944,1.31526967 25.2251374,1.7887169 C25.2251374,1.78878134 25.2251962,1.78878134 25.2251962,1.78884578 C28.9495323,7.24918027 28.9495323,14.7456536 25.2251962,20.2059236 C24.8754077,20.6769866 24.9402509,21.3697261 25.369991,21.7531494 C25.7997311,22.1365727 26.4317019,22.0654944 26.7814904,21.5944315 C26.7837831,21.5913384 26.7860759,21.5882452 26.7883686,21.5850876 C31.0705438,15.3069338 31.0705438,6.68770678 26.7883686,0.409681825 Z"
                        id="Path"></path>
                </g>
            </g>
        </g>
    </g>
</svg>