<?xml version="1.0" encoding="UTF-8"?>
<svg width="56px" height="56px" viewBox="0 0 56 56" version="1.1" xmlns="http://www.w3.org/2000/svg" xmlns:xlink="http://www.w3.org/1999/xlink">
    <title>0869B70F-26AC-4A03-8EDA-D981A9F32D76</title>
    <g id="Page-1" stroke="none" stroke-width="1" fill="none" fill-rule="evenodd">
        <g id="video-call" transform="translate(-177.000000, -807.000000)">
            <g id="Group" transform="translate(177.000000, 807.000000)">
                <rect id="Rectangle" fill="#FFFFFF" x="0" y="0" width="56" height="56" rx="28"></rect>
                <g id="video-camera-with-play-button" transform="translate(11.000000, 19.000000)" fill="#3C0FC7">
                    <path d="M35.4584719,1.26226087 C34.5251306,0.898434783 33.4511045,1.0993913 32.7365959,1.77182609 L27.9787167,6.25113043 L27.9787167,3.52095652 C27.9787167,1.57669565 26.303986,0 24.2382386,0 L3.74047805,0 C1.67482299,0 0,1.57669565 0,3.52095652 L0,16.4790435 C0,18.4233043 1.67482299,20 3.74047805,20 L24.2382386,20 C26.303986,20 27.9787167,18.4233043 27.9787167,16.4790435 L27.9787167,13.7487826 L32.7365959,18.228087 C33.2148132,18.678 33.8532061,18.9171304 34.5033304,18.9171304 C34.8248824,18.9171304 35.1494827,18.8581739 35.4584719,18.7377391 C36.3913513,18.3738261 37,17.5166957 37,16.5657391 L37,3.43417391 C37,2.48321739 36.3913513,1.62608696 35.4584719,1.26226087 Z M17.6779478,10.942849 L12.7737848,14.753916 C12.564613,14.9167736 12.3117231,15 12.0575891,15 C11.8806728,15 11.7030456,14.959735 11.5381251,14.8774972 C11.1365757,14.6774304 10.8823529,14.2640847 10.8823529,13.8111031 L10.8823529,6.18887931 C10.8823529,5.73580786 11.1365757,5.32255205 11.5381251,5.12257507 C11.9398522,4.92232846 12.418797,4.97014318 12.7736959,5.24615635 L17.6778589,9.05713345 C17.967536,9.2821862 18.1372549,9.63064047 18.1372549,9.99994628 C18.1373437,10.369342 17.9676249,10.7177962 17.6779478,10.942849 Z" id="Shape"></path>
                </g>
            </g>
        </g>
    </g>
</svg>