<svg height="50" viewBox="0 0 50 50" width="50" xmlns="http://www.w3.org/2000/svg">
  <g data-name="Group 2389" id="Group_2389" transform="translate(-74 -639)">
    <g data-name="Group 2387" id="Group_2387" transform="translate(45 0.18)">
      <circle cx="25" cy="25" data-name="Ellipse 13" fill="#fff" id="Ellipse_13" r="25" transform="translate(29 638.82)"/>
    </g>
    <g data-name="Group 2388" id="Group_2388" transform="translate(-5949.823 -98)">
      <path d="M51.687,11.238a4.524,4.524,0,0,0,.13,1.12l-1.21,1.21c-.08-.18-.15-.38-.22-.58a5.935,5.935,0,0,1-.25-1.73V9.988c.01-.38.16-.53.54-.53h.45c.4,0,.56.15.56.55s-.01.82,0,1.23" data-name="Path 3371" fill="#7004e3" id="Path_3371" transform="translate(5992.741 752)"/>
      <path d="M62.077,13.4a6.2,6.2,0,0,1-4.74,3.99c-.03,0-.06.01-.09.01a1.243,1.243,0,0,0-.16.04v1.03H60.1c.42,0,.56.14.56.56.01.14,0,.29.01.44a.487.487,0,0,1-.34.53h-8.05a.468.468,0,0,1-.34-.53v-.5c.01-.35.16-.5.51-.5h3.07v-1.03a6.27,6.27,0,0,1-.75-.17,6.336,6.336,0,0,1-2.38-1.23l1.08-1.08a5.723,5.723,0,0,0,.94.57,4.618,4.618,0,0,0,6.51-4.29c-.01-.42-.01-.84,0-1.25,0-.38.16-.53.53-.53.19,0,.37-.01.55,0,.27.01.45.15.45.41a8.792,8.792,0,0,1-.37,3.53" data-name="Path 3372" fill="#7004e3" id="Path_3372" transform="translate(5992.741 752)"/>
      <path d="M54.057,14.368l5.8-5.8c.01,1.08.02,2.16,0,3.24a3.565,3.565,0,0,1-5.8,2.56" data-name="Path 3373" fill="#7004e3" id="Path_3373" transform="translate(5992.741 752)"/>
      <path d="M59.867,3.738v.57l-7.13,7.13c-.02-2.59,0-5.19-.01-7.78a3.606,3.606,0,0,1,2.93-3.6,3.557,3.557,0,0,1,4.16,2.96,4.359,4.359,0,0,1,.05.72" data-name="Path 3374" fill="#7004e3" id="Path_3374" transform="translate(5992.741 752)"/>
      <path d="M48.832,18.219a.75.75,0,0,1-.53-1.28L63.237,2A.75.75,0,0,1,64.3,3.064L49.362,18a.744.744,0,0,1-.53.22" data-name="Path 3375" fill="#7004e3" id="Path_3375" transform="translate(5992.741 752)"/>
    </g>
  </g>
</svg>
