<svg xmlns="http://www.w3.org/2000/svg" xmlns:xlink="http://www.w3.org/1999/xlink" width="45" height="36.571" viewBox="0 0 45 36.571">
  <defs>
    <clipPath id="clip-path">
      <rect id="Rectangle_35" data-name="Rectangle 35" width="45" height="36.571" transform="translate(0 0.001)" fill="#9a9a9a"/>
    </clipPath>
  </defs>
  <g id="Group_53" data-name="Group 53" transform="translate(0 -0.001)">
    <g id="Group_53-2" data-name="Group 53" clip-path="url(#clip-path)">
      <path id="Path_35" data-name="Path 35" d="M0,31.833v-21a.361.361,0,0,0,.067-.107,5.406,5.406,0,0,1,5.64-4.618q2.856,0,5.711,0c.155,0,.31-.014.512-.023,0-.288-.009-.534,0-.78A5.311,5.311,0,0,1,17.141.056q5.356-.113,10.717,0a5.313,5.313,0,0,1,5.2,5.251c.01.256,0,.512,0,.8h.563c1.933,0,3.866-.012,5.8,0a5.4,5.4,0,0,1,5.562,5.41q.03,9.818-.015,19.635a5.51,5.51,0,0,1-.479,2.2,5.253,5.253,0,0,1-5.149,3.211q-16.845.01-33.691,0c-.161,0-.323,0-.483-.012a5.26,5.26,0,0,1-4.48-2.805A12.328,12.328,0,0,1,0,31.833M12.289,20.679A10.205,10.205,0,1,0,22.53,10.524,10.224,10.224,0,0,0,12.289,20.679" fill="#9a9a9a"/>
      <path id="Path_36" data-name="Path 36" d="M27.9,20.8a5.4,5.4,0,1,1-5.317-5.475A5.392,5.392,0,0,1,27.9,20.8" fill="#9a9a9a"/>
    </g>
  </g>
</svg>
