<svg id="Group_2549" data-name="Group 2549" xmlns="http://www.w3.org/2000/svg" width="40.046" height="40.046" viewBox="0 0 40.046 40.046">
  <path id="Path_3868" data-name="Path 3868" d="M125.056,40.046h0a20.023,20.023,0,1,1,20.023-20.023,20.023,20.023,0,0,1-20.023,20.023" transform="translate(-105.033)" fill="#df4b38"/>
  <path id="Path_3869" data-name="Path 3869" d="M132.221,28.46h-8.091l.009,2.317H129.6c-.645,2.822-2.636,4.551-5.308,4.551a6.346,6.346,0,1,1,4.315-11l1.79-1.543a8.7,8.7,0,1,0-6.1,14.895c4.614,0,7.948-3.519,7.948-8.323Z" transform="translate(-109.695 -8.959)" fill="#fff"/>
  <path id="Path_3870" data-name="Path 3870" d="M159.236,32.459H155.9V29.119h-2.131v3.339h-3.339v2.131h3.339v3.339H155.9V34.589h3.339Z" transform="translate(-125.083 -12.862)" fill="#fff"/>
</svg>
