<svg xmlns="http://www.w3.org/2000/svg" width="77.276" height="80.89" viewBox="0 0 77.276 80.89">
  <g id="Group_3034" data-name="Group 3034" transform="translate(36 -1250.48)">
    <path id="Path_4108" data-name="Path 4108" d="M38.829,0A15.98,15.98,0,0,1,45.74,2.87a14.086,14.086,0,0,1,5.131,7.206.847.847,0,0,0,.957.692c4.764-.012,9.527-.006,14.291-.01.2,0,.485.09.581-.116.124-.267-.189-.394-.341-.547C65.307,9.04,64.213,8.023,63.192,6.94a1.9,1.9,0,0,1,.888-3.328,1.849,1.849,0,0,1,1.722.573c2.431,2.376,4.861,4.754,7.256,7.165A1.81,1.81,0,0,1,73,14.129q-3.547,3.552-7.147,7.052a1.881,1.881,0,0,1-2.755.126,1.84,1.84,0,0,1,0-2.728c1.051-1.127,2.182-2.18,3.268-3.275.151-.152.468-.279.327-.548-.1-.194-.384-.108-.587-.109-4.527,0-9.053.006-13.58-.012-.627,0-.891.2-.937.832a14.237,14.237,0,0,1-2.421,7.076,1.877,1.877,0,0,1-2.1.884,1.844,1.844,0,0,1-1.436-1.5,2.363,2.363,0,0,1,.545-1.816,10.642,10.642,0,0,0,1.6-5.863,10.933,10.933,0,1,0-21.835,1.137,10.26,10.26,0,0,0,1.531,4.7,2.535,2.535,0,0,1,.581,1.735,1.788,1.788,0,0,1-1.344,1.569,1.912,1.912,0,0,1-2.2-.84,14.06,14.06,0,0,1-1.862-3.938,13.834,13.834,0,0,1-.584-3.29c-.023-.5-.237-.685-.728-.684q-7.066.01-14.133.007a1.937,1.937,0,0,0-.361.068l-.169.225c.6.525,1.228,1.03,1.807,1.581.758.72,1.52,1.442,2.209,2.225a1.8,1.8,0,0,1-.044,2.482,1.864,1.864,0,0,1-2.506.216,5.174,5.174,0,0,1-.715-.609Q4.21,17.674,1,14.5C-.333,13.178-.334,12.231,1,10.91Q4.205,7.737,7.419,4.572C8.612,3.4,9.682,3.247,10.586,4.116s.76,1.949-.42,3.117C9.041,8.347,7.912,9.458,6.775,10.581a.971.971,0,0,0,.818.177c4.685.006,9.369-.008,14.054.019A1.078,1.078,0,0,0,22.861,9.9C24.789,4.481,28.69,1.289,34.348.125,34.526.088,34.7.042,34.88,0Z" transform="translate(-36 1250.48)" fill="#fff"/>
    <path id="Path_4109" data-name="Path 4109" d="M117.508,107.389c-4.6,0-9.2-.029-13.8.013a6.113,6.113,0,0,1-5.065-2.442A61.43,61.43,0,0,1,86.514,79.267a31.659,31.659,0,0,1-1.256-8.8,7.74,7.74,0,0,1,2.574-5.731,7.225,7.225,0,0,1,7.254-1.305c.977.3.97.33.97-.744q0-10.312,0-20.624a9.046,9.046,0,0,1,1.066-4.709,7.3,7.3,0,0,1,13.613,3.52c.05,3.713.031,7.428,0,11.141-.005.715.124.836.808.57a7.308,7.308,0,0,1,10.091,6.764c.03.725.17.812.84.557a7.273,7.273,0,0,1,9.807,5.061A10.4,10.4,0,0,1,132.554,67c.029.456.142.54.562.356,5.075-2.223,9.965,1.48,10.246,6.5a37.327,37.327,0,0,1-.236,5.823,82.632,82.632,0,0,1-3.5,16.564,75.162,75.162,0,0,1-2.87,7.846,5.127,5.127,0,0,1-4.9,3.289c-4.78.04-9.561.012-14.342.012Zm-17.653-51.5q0,6.914,0,13.827a7.943,7.943,0,0,1-.034,1.025,1.857,1.857,0,0,1-3.631.2c-.093-.382-.126-.778-.183-1.169a3.36,3.36,0,0,0-2.83-2.852,3.23,3.23,0,0,0-3.763,2.1,6.034,6.034,0,0,0-.357,2.559,42.888,42.888,0,0,0,1.281,7.372,57.743,57.743,0,0,0,11.225,23.541,2.351,2.351,0,0,0,2.124,1.049c.594-.045,1.195-.008,1.792-.008q12.9,0,25.8,0c1.364,0,1.735-.257,2.227-1.52s.985-2.493,1.431-3.757a81.2,81.2,0,0,0,4.513-20.19A15.935,15.935,0,0,0,139.5,73.5a3.371,3.371,0,0,0-4.739-2.626,3.451,3.451,0,0,0-2.178,2.942c-.152,1.236-.6,1.89-1.462,2.1a1.917,1.917,0,0,1-2.364-2.089c-.023-2.238,0-4.477-.01-6.716a3.592,3.592,0,0,0-3.165-3.835,3.525,3.525,0,0,0-3.913,3.392c-.164,1.29-.913,2.037-1.993,1.987a1.985,1.985,0,0,1-1.819-2.09c-.018-.262-.009-.526-.009-.79,0-2.16.016-4.32-.016-6.479a3.506,3.506,0,0,0-6.41-1.869,4.669,4.669,0,0,0-.666,2.08,1.949,1.949,0,0,1-1.809,1.846,1.924,1.924,0,0,1-1.927-1.794,7.533,7.533,0,0,1-.066-1.18c-.007-5.794.011-11.589-.024-17.383a3.5,3.5,0,0,0-3.392-3.456,3.562,3.562,0,0,0-3.552,3.028,10.828,10.828,0,0,0-.121,1.571q-.014,6.874-.005,13.748" transform="translate(-102.123 1223.967)" fill="#fff"/>
  </g>
</svg>
