<svg height="50" viewBox="0 0 50 50" width="50" xmlns="http://www.w3.org/2000/svg">
  <defs>
    <clipPath id="clip-path">
      <rect data-name="Rectangle 73" fill="#7004e3" height="15.089" id="Rectangle_73" width="23.311"/>
    </clipPath>
  </defs>
  <g data-name="Group 2385" id="Group_2385" transform="translate(-60 -639)">
    <g data-name="Group 111" id="Group_111" transform="translate(31 0.18)">
      <circle cx="25" cy="25" data-name="Ellipse 13" fill="#fff" id="Ellipse_13" r="25" transform="translate(29 638.82)"/>
    </g>
    <g data-name="Group 99" id="Group_99" transform="translate(73 656.456)">
      <g clip-path="url(#clip-path)" data-name="Group 98" id="Group_98">
        <path d="M0,2.427A3.467,3.467,0,0,1,.59,1.095,2.72,2.72,0,0,1,2.678.013C3.271-.008,3.866,0,4.459,0,7.769,0,9.192,0,12.5,0a2.722,2.722,0,0,1,2.687,1.652,3.18,3.18,0,0,1,.256,1.262c.021,3.085.015,6.169.009,9.254a2.806,2.806,0,0,1-2.328,2.873,3.54,3.54,0,0,1-.649.043c-3.794,0-5.7,0-9.5,0A2.8,2.8,0,0,1,.04,12.723c0-.022-.026-.04-.04-.06V2.427" data-name="Path 68" fill="#7004e3" id="Path_68" transform="translate(0 0)"/>
        <path d="M24.295,7.636c0,1.438.009,2.876,0,4.314a1.672,1.672,0,0,1-2.159,1.612,2.48,2.48,0,0,1-.5-.228c-1.356-.773-2.708-1.555-4.067-2.326a.368.368,0,0,1-.213-.373q.01-3.023,0-6.045a.313.313,0,0,1,.159-.327c1.415-.807,2.82-1.631,4.235-2.436a1.645,1.645,0,0,1,2.311.637,2.082,2.082,0,0,1,.224.933c.023,1.413.009,2.826.009,4.239" data-name="Path 69" fill="#7004e3" id="Path_69" transform="translate(-0.988 -0.091)"/>
      </g>
    </g>
  </g>
</svg>
