<svg height="109.972" viewBox="0 0 122.062 109.972" width="122.062"
    xmlns="http://www.w3.org/2000/svg">
    <defs>
        <clipPath id="clip-path">
            <rect data-name="Rectangle 188" fill="none" height="109.972" id="Rectangle_188"
                width="122.062" />
        </clipPath>
        <linearGradient gradientUnits="objectBoundingBox" id="linear-gradient" x1="0.473" x2="0.524"
            y1="0.059" y2="0.57">
            <stop offset="0" stop-color="#7004e3" />
            <stop offset="0.517" stop-color="#8511e6" />
            <stop offset="1" stop-color="#9a1ee9" />
        </linearGradient>
    </defs>
    <g data-name="Group 2566" id="Group_2566" transform="translate(1408 -748)">
        <g data-name="Group 2567" id="Group_2567" transform="translate(-1408 748)">
            <g clip-path="url(#clip-path)" data-name="Group 2566" id="Group_2566-2">
                <path
                    d="M34.964,282.066,27.952,307.3H21.37l-3.816-18.078L13.547,307.3H6.916L0,282.066H6.44l4.007,17.506,3.625-17.506H20.8l3.434,17.506L27.666,284.4a2.98,2.98,0,0,1,3.1-2.338Z"
                    data-name="Path 3881" fill="#7004e2" id="Path_3881"
                    transform="translate(0 -207.201)" />
                <path
                    d="M161.5,293.746c0,8.681-3.864,13.07-11.5,13.07s-11.448-4.388-11.448-13.07c0-8.777,3.816-13.118,11.448-13.118s11.5,4.341,11.5,13.118m-16.5,0c.048,4.913,1.717,7.393,4.961,7.393s4.865-2.576,4.913-7.584c0-4.913-1.622-7.346-4.865-7.346-3.339,0-5.009,2.528-5.009,7.537"
                    data-name="Path 3882" fill="#7004e2" id="Path_3882"
                    transform="translate(-101.784 -206.145)" />
                <path
                    d="M258.728,293.746c0,8.681-3.864,13.07-11.5,13.07s-11.448-4.388-11.448-13.07c0-8.777,3.816-13.118,11.448-13.118s11.5,4.341,11.5,13.118m-16.5,0c.048,4.913,1.717,7.393,4.961,7.393s4.866-2.576,4.913-7.584c0-4.913-1.622-7.346-4.866-7.346-3.339,0-5.008,2.528-5.008,7.537"
                    data-name="Path 3883" fill="#7004e2" id="Path_3883"
                    transform="translate(-173.203 -206.145)" />
                <path d="M340.071,258.03v29.335h-6.344V254.929h3.291a3.116,3.116,0,0,1,3.053,3.1"
                    data-name="Path 3884" fill="#7004e2" id="Path_3884"
                    transform="translate(-245.15 -187.267)" />
                <path
                    d="M374.175,311.782c3.482,0,4.722-1.717,3.721-5.056l-8.586-24.661h7.2l5.008,17.506,4.388-15.264a2.792,2.792,0,0,1,3.005-2.242h4.436l-9.969,29.526c-1.526,4.15-3.053,5.581-8.3,5.581a8.292,8.292,0,0,1-2.671-.191v-5.2Z"
                    data-name="Path 3885" fill="#7004e2" id="Path_3885"
                    transform="translate(-271.289 -207.2)" />
            </g>
        </g>
        <path
            d="M168.591.127c-2.752.4-5.651,1-8.4,1.513s-5.534,1-8.3,1.5c-2.8.5-5.651,1.1-8.435,1.518-1.821.268-3.488.483-5.271.839-1.736.345-3.421.7-5.168,1-2.548.425-6.354.81-8.161,2.686-1.564,1.619-3.029,3.838-3.068,6.171a.06.06,0,0,1,0,.021,29.067,29.067,0,0,1,3.745-.056,10.56,10.56,0,0,1,7.039,4.348c2.41,3.3,2.11,5.494,2.272,9.152.138,3.127-.587,6.84,3.2,8.2a4.957,4.957,0,0,0,6.261-2.628,8.7,8.7,0,0,0,.337-1.585c.3-1.255.1-9.433.082-11.046-.024-2.66-.369-4.825,1.5-6.067a3.213,3.213,0,0,1,4.839,1.7,10.274,10.274,0,0,1,.183,3.594c-.088,1.322-.053,2.391-.024,3.7.056,2.508-.21,5.019.011,7.53.194,2.214.8,3.808,2.949,4.695a5.043,5.043,0,0,0,5.6-1.16,5.6,5.6,0,0,0,1.2-2.636c.122-1.192.173-2.368.178-3.572.011-2.431-.1-4.9-.138-7.328-.04-2.317-.281-5.22,1.247-6.338,1.839-1.343,4.464-.552,5.061,1.282.682,2.1.387,12.034.287,14.821a12.276,12.276,0,0,1-1.462,6.118c-3.578,5.884-11.378,7.678-16.732,3.564-2.025-1.555-1.125-1.223-3.328.3a11.518,11.518,0,0,1-15.859-3.113c-3.278-4.786-1.173-8.833-2.046-12.982-.425-2.017-1.563-3.745-3.565-4.047a4.35,4.35,0,0,0-2.951.669c-1.105.738-1.233,2.405-1.364,3.6-.2,1.85-.309,3.709-.532,5.557-.3,2.524-.681,5.039-1.01,7.56-.183,1.4-1.117,7.214-.727,9.141A6.371,6.371,0,0,0,121.6,52.8c1.048.494,9.94.433,11.591.4,1.752-.04,4.093-.319,5.669.22a3.684,3.684,0,0,1-.271,2.484c-.443,1.683-1.914,6.423-1.316,7.509.842.119,1.85-.929,2.317-1.3,1.916-1.547,5.4-4.692,7.084-5.937l3.105-2.537c.806-.559,3.563-.519,5.532-.479.592.012,1.114.024,1.488.02,1.5-.015,3,0,4.5.017,2.2.024,4.413.048,6.639-.028a9.572,9.572,0,0,0,3.135-.632,10.3,10.3,0,0,0,4.249-3.217,7.237,7.237,0,0,0,1.335-2.4c.82-2.028.661-5.162.687-7.344.019-1.418.027-2.84.032-4.263q.016-4.3.008-8.591c-.011-5.619.111-11.5-.1-17.093.035-3.926.1-7.873-4.31-9.231A9.1,9.1,0,0,0,170.272,0a11.616,11.616,0,0,0-1.681.126"
            data-name="Path 3886" fill="url(#linear-gradient)" id="Path_3886"
            transform="translate(-1494.647 747.999)" />
    </g>
</svg>
