<?xml version="1.0" encoding="UTF-8"?>
<svg height="25px" version="1.1" viewBox="0 0 25 25" width="25px"
    xmlns="http://www.w3.org/2000/svg">
    <title>6070797E-B5DA-4559-9477-02B064C8DFEE</title>
    <g id="Page-1" stroke="none" stroke-width="1" fill="none" fill-rule="evenodd">
        <g id="chat" transform="translate(-366.000000, -832.000000)" fill="#000000"
            fill-rule="nonzero">
            <g id="component/menubar/dashboard" transform="translate(2.000000, 810.000000)">
                <g id="user-(1)qw" transform="translate(364.311985, 22.328799)">
                    <path
                        d="M20.0619486,15.19405 C18.7819446,13.914092 17.2584081,12.9665411 15.5961428,12.3929426 C17.3764789,11.1667408 18.5461242,9.11459375 18.5461242,6.79412472 C18.5461242,3.04785353 15.4982707,0 11.7519995,0 C8.00572833,0 4.9578748,3.04785353 4.9578748,6.79412472 C4.9578748,9.11459375 6.12752009,11.1667408 7.90790211,12.3929426 C6.24563687,12.9665411 4.72210031,13.914092 3.44209639,15.19405 C1.22243748,17.4137548 0,20.3649298 0,23.503999 L1.83624992,23.503999 C1.83624992,18.0364272 6.28442765,13.5882494 11.7519995,13.5882494 C17.2195714,13.5882494 21.6677491,18.0364272 21.6677491,23.503999 L23.503999,23.503999 C23.503999,20.3649298 22.2815616,17.4137548 20.0619486,15.19405 Z M11.7519995,11.7519995 C9.01823654,11.7519995 6.79412472,9.52793361 6.79412472,6.79412472 C6.79412472,4.06031583 9.01823654,1.83624992 11.7519995,1.83624992 C14.4857625,1.83624992 16.7098743,4.06031583 16.7098743,6.79412472 C16.7098743,9.52793361 14.4857625,11.7519995 11.7519995,11.7519995 Z"
                        id="Shape"></path>
                </g>
            </g>
        </g>
    </g>
</svg>