<?xml version="1.0" encoding="UTF-8"?>
<svg height="19px" version="1.1" viewBox="0 0 35 19" width="35px"
    xmlns="http://www.w3.org/2000/svg">
    <title>93D50E86-912F-47E8-9A8F-B3ED60D8A755</title>
    <defs>
        <linearGradient x1="0%" y1="79.9336841%" x2="130.39388%" y2="29.5306707%"
            id="linearGradient-1">
            <stop stop-color="#3C0FC7" offset="0%"></stop>
            <stop stop-color="#C86DD7" offset="100%"></stop>
        </linearGradient>
    </defs>
    <g id="Page-1" stroke="none" stroke-width="1" fill="none" fill-rule="evenodd">
        <g id="Multimedia" transform="translate(-322.000000, -53.000000)"
            fill="url(#linearGradient-1)">
            <g id="video-camera-with-play-button" transform="translate(322.000000, 53.000000)">
                <path d="M33.5417977,1.19914783 C32.6589073,0.853513043 31.6429367,1.04442174 30.9670501,1.68323478 L26.4663536,5.93857391 L26.4663536,3.3449087 C26.4663536,1.49786087 24.882149,0 22.9280636,0 L3.53829004,0 C1.58429202,0 0,1.49786087 0,3.3449087 L0,15.6550913 C0,17.5021391 1.58429202,19 3.53829004,19 L22.9280636,19 C24.882149,19 26.4663536,17.5021391 26.4663536,15.6550913 L26.4663536,13.0613435 L30.9670501,17.3166826 C31.4194179,17.7441 32.0233031,17.9712739 32.6382855,17.9712739 C32.9424563,17.9712739 33.2495107,17.9152652 33.5417977,17.8008522 C34.4242513,17.4551348 35,16.6408609 35,15.7374522 L35,3.26246522 C35,2.35905652 34.4242513,1.54478261 33.5417977,1.19914783 Z M16.6292554,10.3665652 L11.8066499,13.8694217 C11.6009567,14.0191087 11.3522724,14.0956043 11.1023648,14.0956043 C10.9283906,14.0956043 10.7537174,14.0585957 10.5915396,13.9830087 C10.1966681,13.7991217 9.94667306,13.4192043 9.94667306,13.0028565 L9.94667306,5.99706087 C9.94667306,5.58063043 10.1966681,5.20079565 10.5915396,5.0169913 C10.9865859,4.83293913 11.4575656,4.87688696 11.8065625,5.13057826 L16.629168,8.63335217 C16.9140278,8.84020435 17.0809242,9.16047826 17.0809242,9.49991739 C17.0810115,9.83943913 16.9141152,10.159713 16.6292554,10.3665652 Z" id="Shape"></path>
            </g>
        </g>
    </g>
</svg>